<?xml version="1.0" encoding="utf-8"?>
<!-- Generator: Adobe Illustrator 18.1.1, SVG Export Plug-In . SVG Version: 6.00 Build 0)  -->
<!DOCTYPE svg PUBLIC "-//W3C//DTD SVG 1.1//EN" "http://www.w3.org/Graphics/SVG/1.1/DTD/svg11.dtd">
<svg version="1.1" id="contents" xmlns="http://www.w3.org/2000/svg" xmlns:xlink="http://www.w3.org/1999/xlink" x="0px" y="0px"
	 viewBox="0 0 40 40" enable-background="new 0 0 40 40" xml:space="preserve">
<path fill="#FFFFFF" d="M20,1.9c-4.3,0-15.4,13.5-16.6,15.8S1.9,20.7,3.8,22c0,0,6.7,0.8,6.1,3.3c-0.6,2.6-1,11.7,1,11.7
	c1.8,0,1.4-1.6,2.7-3.4c0.7,1.6,0.9,4.5,2.8,4.5s1.6-1.9,3.6-4.8H20c1.9,2.9,1.6,4.8,3.6,4.8s2.1-3,2.8-4.5c1.3,1.8,0.9,3.4,2.7,3.4
	c2.1,0,1.6-9.1,1-11.6c-0.6-2.6,6.1-3.3,6.1-3.3c1.8-1.2,1.6-2.1,0.4-4.3C35.4,15.4,24.3,1.9,20,1.9"/>
</svg>
